<?xml version="1.0" standalone="no"?>
<!DOCTYPE svg PUBLIC "-//W3C//DTD SVG 20010904//EN"
 "http://www.w3.org/TR/2001/REC-SVG-20010904/DTD/svg10.dtd">
<svg version="1.0" xmlns="http://www.w3.org/2000/svg"
 width="512.000000pt" height="512.000000pt" viewBox="0 0 512.000000 512.000000"
 preserveAspectRatio="xMidYMid meet">
<metadata>
Created by potrace 1.14, written by Peter Selinger 2001-2017
</metadata>
<g transform="translate(0.000000,512.000000) scale(0.100000,-0.100000)"
fill="#000000" stroke="none">
<path d="M3403 5060 c-21 -34 -67 -107 -103 -163 -76 -118 -260 -410 -275
-435 -5 -10 -41 -66 -78 -124 -39 -61 -69 -121 -72 -140 -2 -18 -6 -62 -10
-98 -4 -36 -9 -72 -10 -80 -2 -8 -6 -50 -10 -92 -3 -43 -8 -88 -10 -100 -2
-13 -6 -50 -10 -83 -3 -33 -10 -96 -15 -140 -5 -44 -12 -109 -16 -145 -3 -36
-7 -72 -9 -80 -2 -8 -6 -53 -10 -100 -4 -47 -8 -92 -10 -100 -2 -8 -6 -48 -10
-87 -4 -40 -8 -81 -10 -90 -2 -10 -4 -27 -4 -38 -1 -17 -47 -87 -122 -185 -11
-14 -40 -52 -65 -85 -25 -33 -50 -67 -57 -75 -7 -8 -37 -49 -67 -90 -30 -41
-58 -79 -63 -85 -7 -8 -96 -127 -177 -235 -191 -254 -587 -781 -601 -800 -10
-14 -49 -65 -86 -114 l-68 -89 -1 -294 c-1 -161 -3 -295 -5 -297 -2 -2 -29 -7
-59 -11 -30 -3 -82 -10 -115 -15 -50 -8 -177 -22 -195 -22 -34 -1 -33 -4 -15
102 3 18 17 126 20 155 4 31 16 117 21 145 2 14 7 48 10 75 4 28 10 68 14 90
8 44 26 3 -216 470 -54 105 -103 200 -109 212 -5 13 -13 23 -16 23 -4 0 -112
-138 -239 -306 l-233 -307 12 -61 c7 -33 14 -72 17 -86 2 -14 9 -45 14 -70 11
-49 14 -62 35 -165 8 -38 28 -135 45 -215 17 -80 33 -156 36 -170 21 -103 19
-100 140 -214 65 -61 149 -141 188 -178 l71 -67 1271 -1 1270 0 0 224 c0 181
3 227 15 238 8 8 59 64 114 123 55 60 125 135 156 168 l56 60 0 -404 0 -404
426 -3 c402 -2 427 -1 428 15 0 22 0 301 -1 325 0 10 -44 44 -115 88 -72 45
-115 78 -115 89 0 16 27 241 35 291 2 14 6 54 10 90 3 36 8 72 10 80 2 8 6 42
10 75 6 63 8 79 25 215 13 107 18 141 25 210 4 30 8 66 10 80 2 14 6 52 10 85
3 33 8 71 10 85 2 14 7 50 10 80 3 30 7 64 9 75 2 11 7 52 11 90 4 39 9 78 11
88 2 10 6 45 9 78 4 33 8 70 11 82 2 12 7 56 10 97 l6 75 -50 75 c-27 41 -89
136 -137 210 -49 74 -113 173 -144 220 -31 47 -60 92 -66 102 -5 9 -27 44 -49
78 -21 34 -37 63 -35 65 2 2 74 22 159 44 85 22 189 50 230 61 41 11 84 23 95
25 98 22 182 49 182 59 0 15 14 193 18 236 2 19 6 73 10 120 3 47 8 103 10
125 2 22 7 76 10 120 3 44 8 88 11 97 5 17 -24 29 -101 41 -49 8 -204 35 -295
51 -47 8 -141 25 -210 36 -69 12 -128 27 -132 33 -4 7 -38 55 -76 107 -68 95
-69 95 -113 96 -24 0 -62 -3 -85 -7 -23 -5 -64 -11 -90 -14 -27 -3 -68 -8 -91
-11 -42 -5 -43 -5 -44 23 0 15 -1 186 -2 378 l-2 350 -72 3 -72 3 -38 -61z"/>
</g>
</svg>
